<svg width="512" height="512" viewBox="0 0 512 512" fill="none" xmlns="http://www.w3.org/2000/svg">
  <rect width="512" height="512" rx="96" fill="#061723"/>
  <rect width="512" height="512" rx="96" fill="url(#bg)"/>
  <path d="M160 208C181.333 154.667 213.333 128 256 128C320 128 328 176 360 184C381.333 189.333 405.333 178.667 432 152C410.667 205.333 378.667 232 336 232C272 232 264 184 232 176C210.667 170.667 186.667 181.333 160 208Z" fill="#38BDF8"/>
  <path d="M80 304C101.333 250.667 133.333 224 176 224C240 224 248 272 280 280C301.333 285.333 325.333 274.667 352 248C330.667 301.333 298.667 328 256 328C192 328 184 280 152 272C130.667 266.667 106.667 277.333 80 304Z" fill="#67E8F9"/>
  <defs>
    <linearGradient id="bg" x1="56" y1="44" x2="456" y2="464" gradientUnits="userSpaceOnUse">
      <stop stop-color="#0B2535"/>
      <stop offset="1" stop-color="#0A1E2B"/>
    </linearGradient>
  </defs>
</svg>
